<svg width="16" height="16" viewBox="0 0 16 16" fill="none" xmlns="http://www.w3.org/2000/svg">
<path d="M7.6 4.76837e-06C7.31667 4.76837e-06 7.079 0.0960049 6.887 0.288005C6.695 0.480005 6.59933 0.717338 6.6 1V12.175L1.725 7.3C1.525 7.1 1.28733 7 1.012 7C0.736667 7 0.499333 7.1 0.3 7.3C0.0999997 7.5 0 7.73334 0 8C0 8.26667 0.0999997 8.5 0.3 8.7L6.9 15.3C7 15.4 7.10833 15.4707 7.225 15.512C7.34167 15.5533 7.46667 15.5743 7.6 15.575C7.73333 15.575 7.86267 15.554 7.988 15.512C8.11333 15.47 8.21733 15.3993 8.3 15.3L14.9 8.7C15.1 8.5 15.2 8.26667 15.2 8C15.2 7.73334 15.1 7.5 14.9 7.3C14.7 7.1 14.4623 7 14.187 7C13.9117 7 13.6743 7.1 13.475 7.3L8.6 12.175V1C8.6 0.716671 8.504 0.479005 8.312 0.287005C8.12 0.0950054 7.88267 -0.000661898 7.6 4.76837e-06Z" fill="black"/>
</svg>
