<svg width="17" height="16" viewBox="0 0 17 16" fill="none" xmlns="http://www.w3.org/2000/svg">
<path d="M0.812497 7.7875C0.812497 7.50417 0.908497 7.2665 1.1005 7.0745C1.2925 6.8825 1.52983 6.78684 1.8125 6.7875L12.9875 6.7875L8.1125 1.9125C7.9125 1.7125 7.8125 1.47484 7.8125 1.1995C7.8125 0.924171 7.9125 0.686837 8.1125 0.487504C8.3125 0.287504 8.54583 0.187504 8.8125 0.187504C9.07916 0.187504 9.3125 0.287504 9.5125 0.487504L16.1125 7.0875C16.2125 7.1875 16.2832 7.29584 16.3245 7.4125C16.3658 7.52917 16.3868 7.65417 16.3875 7.7875C16.3875 7.92084 16.3665 8.05017 16.3245 8.1755C16.2825 8.30084 16.2118 8.40484 16.1125 8.4875L9.5125 15.0875C9.3125 15.2875 9.07916 15.3875 8.8125 15.3875C8.54583 15.3875 8.3125 15.2875 8.1125 15.0875C7.9125 14.8875 7.8125 14.6498 7.8125 14.3745C7.8125 14.0992 7.9125 13.8618 8.1125 13.6625L12.9875 8.7875L1.8125 8.7875C1.52916 8.7875 1.2915 8.6915 1.0995 8.4995C0.907497 8.3075 0.811831 8.07017 0.812497 7.7875Z" fill="black"/>
</svg>
